<svg width="655" height="230" viewBox="0 0 655 230" fill="none" xmlns="http://www.w3.org/2000/svg">
<rect x="5" y="5" width="40" height="40" rx="10" fill="#DBE2E5"/>
<path d="M24.7051 18.16L23.6571 15.52H24.8171L25.8651 18.16H24.7051Z" fill="#2C2B6B"/>
<rect x="50" y="5" width="40" height="40" rx="10" fill="#C9C8FF"/>
<path d="M69.878 31V21.056L67.71 22.368V20.776L69.878 19.48H71.326V31H69.878Z" fill="#2C2B6B"/>
<rect x="95" y="5" width="40" height="40" rx="10" fill="#C9C8FF"/>
<path d="M111.175 30.992L111.183 29.712L116.295 25.112C116.722 24.728 117.007 24.3653 117.151 24.024C117.3 23.6773 117.375 23.3227 117.375 22.96C117.375 22.5173 117.274 22.1173 117.071 21.76C116.868 21.4027 116.591 21.12 116.239 20.912C115.892 20.704 115.498 20.6 115.055 20.6C114.596 20.6 114.188 20.7093 113.831 20.928C113.474 21.1413 113.191 21.4267 112.983 21.784C112.78 22.1413 112.682 22.5307 112.687 22.952H111.231C111.231 22.2267 111.399 21.5867 111.735 21.032C112.071 20.472 112.527 20.0347 113.103 19.72C113.684 19.4 114.343 19.24 115.079 19.24C115.794 19.24 116.434 19.4053 116.999 19.736C117.564 20.0613 118.01 20.5067 118.335 21.072C118.666 21.632 118.831 22.2667 118.831 22.976C118.831 23.4773 118.767 23.912 118.639 24.28C118.516 24.648 118.324 24.9893 118.063 25.304C117.802 25.6133 117.474 25.944 117.079 26.296L112.831 30.112L112.647 29.632H118.831V30.992H111.175Z" fill="#2C2B6B"/>
<rect x="140" y="5" width="40" height="40" rx="10" fill="#ACF3C7"/>
<path d="M159.78 31.224C159.209 31.224 158.679 31.12 158.188 30.912C157.697 30.6987 157.273 30.4 156.916 30.016C156.564 29.6267 156.305 29.1653 156.14 28.632L157.508 28.24C157.684 28.7733 157.977 29.1787 158.388 29.456C158.799 29.7333 159.26 29.8693 159.772 29.864C160.241 29.8533 160.647 29.7467 160.988 29.544C161.335 29.336 161.601 29.0533 161.788 28.696C161.98 28.3387 162.076 27.9253 162.076 27.456C162.076 26.7413 161.863 26.1627 161.436 25.72C161.009 25.272 160.449 25.048 159.756 25.048C159.564 25.048 159.361 25.0747 159.148 25.128C158.94 25.1813 158.745 25.256 158.564 25.352L157.876 24.224L162.148 20.36L162.332 20.84H156.596V19.48H163.388V20.848L159.748 24.336L159.732 23.832C160.495 23.7787 161.161 23.904 161.732 24.208C162.303 24.512 162.745 24.9467 163.06 25.512C163.38 26.0773 163.54 26.7253 163.54 27.456C163.54 28.192 163.375 28.8427 163.044 29.408C162.713 29.9733 162.265 30.4187 161.7 30.744C161.135 31.064 160.495 31.224 159.78 31.224Z" fill="#00635F"/>
<rect x="185" y="5" width="40" height="40" rx="10" fill="#FFBDCA"/>
<path d="M206.33 31V28.88H201.034V27.528L204.834 19.48H206.45L202.65 27.528H206.33V24.288H207.77V27.528H208.97V28.88H207.77V31H206.33Z" fill="#801D18"/>
<rect x="230" y="5" width="40" height="40" rx="10" fill="#99E9E5"/>
<path d="M249.887 31.24C249.295 31.24 248.743 31.1173 248.231 30.872C247.725 30.6267 247.29 30.2907 246.927 29.864C246.57 29.432 246.314 28.936 246.159 28.376L247.527 28.008C247.623 28.3867 247.794 28.7147 248.039 28.992C248.285 29.264 248.57 29.4773 248.895 29.632C249.226 29.7813 249.57 29.856 249.927 29.856C250.397 29.856 250.818 29.744 251.191 29.52C251.57 29.2907 251.869 28.9893 252.087 28.616C252.306 28.2373 252.415 27.824 252.415 27.376C252.415 26.912 252.301 26.4933 252.071 26.12C251.847 25.7413 251.546 25.4427 251.167 25.224C250.789 25.0053 250.375 24.896 249.927 24.896C249.421 24.896 248.986 25.0027 248.623 25.216C248.266 25.424 247.983 25.68 247.775 25.984L246.511 25.504L246.863 19.48H253.047V20.832H247.551L248.183 20.24L247.887 25.064L247.575 24.656C247.895 24.3147 248.277 24.0507 248.719 23.864C249.167 23.6773 249.623 23.584 250.087 23.584C250.802 23.584 251.442 23.752 252.007 24.088C252.573 24.4187 253.021 24.872 253.351 25.448C253.682 26.0187 253.847 26.6613 253.847 27.376C253.847 28.0853 253.666 28.7333 253.303 29.32C252.941 29.9013 252.458 30.368 251.855 30.72C251.258 31.0667 250.602 31.24 249.887 31.24Z" fill="#00635F"/>
<rect x="275" y="5" width="40" height="40" rx="10" fill="#99E9E5"/>
<path d="M295.079 31.24C294.349 31.24 293.685 31.064 293.087 30.712C292.495 30.36 292.023 29.88 291.671 29.272C291.325 28.6587 291.151 27.968 291.151 27.2V23.368C291.151 22.5627 291.325 21.8507 291.671 21.232C292.023 20.608 292.503 20.1227 293.111 19.776C293.725 19.424 294.423 19.248 295.207 19.248C295.842 19.248 296.431 19.3787 296.975 19.64C297.525 19.896 297.986 20.2667 298.359 20.752L297.295 21.696C297.066 21.36 296.767 21.0933 296.399 20.896C296.031 20.6987 295.634 20.6 295.207 20.6C294.701 20.6 294.25 20.7227 293.855 20.968C293.466 21.208 293.159 21.528 292.935 21.928C292.711 22.3227 292.599 22.7493 292.599 23.208V25.52L292.287 25.168C292.623 24.688 293.05 24.304 293.567 24.016C294.085 23.728 294.645 23.584 295.247 23.584C295.962 23.584 296.602 23.752 297.167 24.088C297.738 24.424 298.186 24.88 298.511 25.456C298.842 26.0267 299.007 26.6693 299.007 27.384C299.007 28.0987 298.829 28.7467 298.471 29.328C298.114 29.9093 297.637 30.3733 297.039 30.72C296.447 31.0667 295.794 31.24 295.079 31.24ZM295.079 29.864C295.538 29.864 295.957 29.7547 296.335 29.536C296.714 29.312 297.013 29.0133 297.231 28.64C297.455 28.2613 297.567 27.8427 297.567 27.384C297.567 26.9253 297.455 26.5067 297.231 26.128C297.013 25.7493 296.714 25.4507 296.335 25.232C295.962 25.008 295.546 24.896 295.087 24.896C294.629 24.896 294.21 25.008 293.831 25.232C293.458 25.4507 293.159 25.7493 292.935 26.128C292.711 26.5067 292.599 26.9253 292.599 27.384C292.599 27.8373 292.709 28.2533 292.927 28.632C293.151 29.0053 293.45 29.304 293.823 29.528C294.202 29.752 294.621 29.864 295.079 29.864Z" fill="#00635F"/>
<rect x="320" y="5" width="40" height="40" rx="10" fill="#FFEB99"/>
<path d="M337.626 31L341.77 20.848H336.538V19.48H343.298V20.848L339.162 31H337.626Z" fill="#806600"/>
<rect x="365" y="5" width="40" height="40" rx="10" fill="#FFBDCA"/>
<path d="M384.993 31.24C384.257 31.24 383.607 31.0933 383.041 30.8C382.476 30.5013 382.033 30.088 381.713 29.56C381.393 29.032 381.233 28.416 381.233 27.712C381.233 27.024 381.396 26.4027 381.721 25.848C382.052 25.2933 382.548 24.8667 383.209 24.568L383.185 25.088C382.647 24.8267 382.233 24.4587 381.945 23.984C381.657 23.504 381.513 22.9733 381.513 22.392C381.513 21.7413 381.663 21.1813 381.961 20.712C382.26 20.2427 382.671 19.88 383.193 19.624C383.716 19.368 384.316 19.24 384.993 19.24C385.671 19.24 386.271 19.368 386.793 19.624C387.316 19.88 387.727 20.2427 388.025 20.712C388.324 21.1813 388.473 21.7413 388.473 22.392C388.473 22.9733 388.337 23.5013 388.065 23.976C387.793 24.4453 387.375 24.816 386.809 25.088L386.777 24.576C387.439 24.864 387.935 25.288 388.265 25.848C388.601 26.4027 388.769 27.024 388.769 27.712C388.769 28.416 388.607 29.032 388.281 29.56C387.961 30.088 387.516 30.5013 386.945 30.8C386.38 31.0933 385.729 31.24 384.993 31.24ZM384.993 29.88C385.665 29.88 386.209 29.696 386.625 29.328C387.047 28.9547 387.257 28.416 387.257 27.712C387.257 27.0027 387.049 26.464 386.633 26.096C386.223 25.7227 385.676 25.536 384.993 25.536C384.316 25.536 383.769 25.7227 383.353 26.096C382.943 26.464 382.737 27.0027 382.737 27.712C382.737 28.416 382.945 28.9547 383.361 29.328C383.777 29.696 384.321 29.88 384.993 29.88ZM384.993 24.168C385.58 24.168 386.055 24.0213 386.417 23.728C386.78 23.4293 386.961 22.984 386.961 22.392C386.961 21.8 386.78 21.3573 386.417 21.064C386.055 20.7653 385.58 20.616 384.993 20.616C384.412 20.616 383.937 20.7653 383.569 21.064C383.207 21.3573 383.025 21.8 383.025 22.392C383.025 22.984 383.207 23.4293 383.569 23.728C383.937 24.0213 384.412 24.168 384.993 24.168Z" fill="#801D18"/>
<rect x="410" y="5" width="40" height="40" rx="10" fill="#FFD599"/>
<path d="M429.919 19.248C430.655 19.248 431.319 19.424 431.911 19.776C432.503 20.128 432.973 20.608 433.319 21.216C433.671 21.824 433.847 22.5147 433.847 23.288V27.12C433.847 27.9253 433.674 28.6373 433.327 29.256C432.981 29.8747 432.501 30.36 431.887 30.712C431.279 31.064 430.581 31.24 429.791 31.24C429.162 31.24 428.573 31.1093 428.023 30.848C427.479 30.5867 427.018 30.216 426.639 29.736L427.703 28.792C427.938 29.1227 428.239 29.3893 428.607 29.592C428.975 29.7893 429.37 29.888 429.791 29.888C430.303 29.888 430.754 29.7653 431.143 29.52C431.538 29.2747 431.845 28.9547 432.063 28.56C432.287 28.1653 432.399 27.7387 432.399 27.28V24.968L432.711 25.32C432.381 25.8 431.957 26.184 431.439 26.472C430.922 26.76 430.359 26.904 429.751 26.904C429.037 26.904 428.397 26.736 427.831 26.4C427.266 26.064 426.818 25.6107 426.487 25.04C426.157 24.464 425.991 23.8187 425.991 23.104C425.991 22.3893 426.17 21.7413 426.527 21.16C426.885 20.5733 427.359 20.1093 427.951 19.768C428.549 19.4213 429.205 19.248 429.919 19.248ZM429.919 20.624C429.461 20.624 429.042 20.736 428.663 20.96C428.29 21.1787 427.991 21.4773 427.767 21.856C427.543 22.2293 427.431 22.6453 427.431 23.104C427.431 23.5627 427.541 23.9813 427.759 24.36C427.983 24.7333 428.282 25.032 428.655 25.256C429.034 25.48 429.453 25.592 429.911 25.592C430.37 25.592 430.789 25.48 431.167 25.256C431.546 25.032 431.845 24.7333 432.063 24.36C432.287 23.9813 432.399 23.5627 432.399 23.104C432.399 22.6507 432.287 22.2373 432.063 21.864C431.845 21.4853 431.546 21.184 431.167 20.96C430.794 20.736 430.378 20.624 429.919 20.624Z" fill="#804A00"/>
<rect x="455" y="5" width="40" height="40" rx="10" fill="#ACF3C7"/>
<path d="M475 31.24C474.254 31.24 473.587 31.072 473 30.736C472.419 30.3947 471.958 29.9333 471.616 29.352C471.28 28.7653 471.112 28.0987 471.112 27.352V23.128C471.112 22.3813 471.28 21.7147 471.616 21.128C471.958 20.5413 472.419 20.08 473 19.744C473.587 19.408 474.254 19.24 475 19.24C475.747 19.24 476.414 19.408 477 19.744C477.587 20.08 478.048 20.5413 478.384 21.128C478.72 21.7147 478.888 22.3813 478.888 23.128V27.352C478.888 28.0987 478.72 28.7653 478.384 29.352C478.048 29.9333 477.587 30.3947 477 30.736C476.414 31.072 475.747 31.24 475 31.24ZM475 29.872C475.454 29.872 475.864 29.7627 476.232 29.544C476.6 29.3253 476.894 29.032 477.112 28.664C477.331 28.2907 477.44 27.88 477.44 27.432V23.04C477.44 22.5867 477.331 22.176 477.112 21.808C476.894 21.44 476.6 21.1467 476.232 20.928C475.864 20.7093 475.454 20.6 475 20.6C474.552 20.6 474.142 20.7093 473.768 20.928C473.4 21.1467 473.107 21.44 472.888 21.808C472.67 22.176 472.56 22.5867 472.56 23.04V27.432C472.56 27.88 472.67 28.2907 472.888 28.664C473.107 29.032 473.4 29.3253 473.768 29.544C474.142 29.7627 474.552 29.872 475 29.872Z" fill="#00635F"/>
<rect x="500" y="5" width="40" height="40" rx="10" fill="#ACF3C7"/>
<path d="M517.601 26.544V25.368H522.401V26.544H517.601Z" fill="#00635F"/>
<rect x="545" y="5" width="40" height="40" rx="10" fill="#ACF3C7"/>
<path d="M560.92 24.416V23.24H569.08V24.416H560.92ZM560.92 27.24V26.064H569.08V27.24H560.92Z" fill="#00635F"/>
<rect x="590" y="5" width="60" height="40" rx="10" fill="#DBE2E5"/>
<path d="M635.793 26.544H626.241L628.713 29.016L627.985 29.744L624.201 25.96L627.985 22.176L628.713 22.904L626.249 25.368H635.793V26.544Z" fill="#174258" fill-opacity="0.8"/>
<rect x="5" y="50" width="60" height="40" rx="10" fill="#DBE2E5"/>
<path d="M18.3302 76V65.832H14.4022V64.48H23.6822V65.832H19.7542V76H18.3302ZM23.8434 76L27.6994 64.48H29.6834L33.5394 76H32.0594L28.4514 65.312H28.8994L25.3234 76H23.8434ZM25.6994 73.304V71.968H31.6834V73.304H25.6994ZM34.9716 76V64.48H39.4596C40.1476 64.48 40.7342 64.6213 41.2196 64.904C41.7102 65.1867 42.0836 65.56 42.3396 66.024C42.6009 66.4827 42.7316 66.9787 42.7316 67.512C42.7316 68.136 42.5716 68.6827 42.2516 69.152C41.9316 69.6213 41.4996 69.944 40.9556 70.12L40.9396 69.728C41.6809 69.9253 42.2569 70.288 42.6676 70.816C43.0782 71.344 43.2836 71.9733 43.2836 72.704C43.2836 73.376 43.1449 73.9573 42.8676 74.448C42.5956 74.9387 42.2009 75.32 41.6836 75.592C41.1716 75.864 40.5636 76 39.8596 76H34.9716ZM36.4116 74.64H39.5876C40.0142 74.64 40.3956 74.5627 40.7316 74.408C41.0676 74.248 41.3316 74.024 41.5236 73.736C41.7209 73.448 41.8196 73.1013 41.8196 72.696C41.8196 72.3067 41.7316 71.9573 41.5556 71.648C41.3849 71.3387 41.1422 71.0933 40.8276 70.912C40.5182 70.7253 40.1582 70.632 39.7476 70.632H36.4116V74.64ZM36.4116 69.288H39.4436C39.7849 69.288 40.0916 69.216 40.3636 69.072C40.6409 68.9227 40.8596 68.7147 41.0196 68.448C41.1849 68.1813 41.2676 67.8693 41.2676 67.512C41.2676 67.016 41.0996 66.6107 40.7636 66.296C40.4276 65.9813 39.9876 65.824 39.4436 65.824H36.4116V69.288Z" fill="#174258" fill-opacity="0.8"/>
<rect x="70" y="50" width="40" height="40" rx="10" fill="#C9C8FF"/>
<path d="M94.3006 76.232L91.1566 73.104L92.0926 72.168L95.2206 75.296L94.3006 76.232ZM89.9966 76.24C88.85 76.24 87.8766 75.9867 87.0766 75.48C86.2766 74.9733 85.666 74.2693 85.2446 73.368C84.8286 72.4667 84.6206 71.424 84.6206 70.24C84.6206 69.056 84.8286 68.0133 85.2446 67.112C85.666 66.2107 86.2766 65.5067 87.0766 65C87.8766 64.4933 88.85 64.24 89.9966 64.24C91.1486 64.24 92.1246 64.4933 92.9246 65C93.7246 65.5067 94.3326 66.2107 94.7486 67.112C95.1646 68.0133 95.3726 69.056 95.3726 70.24C95.3726 71.424 95.1646 72.4667 94.7486 73.368C94.3326 74.2693 93.7246 74.9733 92.9246 75.48C92.1246 75.9867 91.1486 76.24 89.9966 76.24ZM89.9966 74.88C90.8553 74.8853 91.57 74.6933 92.1406 74.304C92.7166 73.9093 93.146 73.3627 93.4286 72.664C93.7166 71.9653 93.8606 71.1573 93.8606 70.24C93.8606 69.3173 93.7166 68.5093 93.4286 67.816C93.146 67.1227 92.7166 66.5813 92.1406 66.192C91.57 65.8027 90.8553 65.6053 89.9966 65.6C89.138 65.5947 88.4233 65.7867 87.8526 66.176C87.2873 66.5653 86.8606 67.1093 86.5726 67.808C86.2846 68.5067 86.138 69.3173 86.1326 70.24C86.1273 71.1573 86.2686 71.9627 86.5566 72.656C86.8446 73.3493 87.274 73.8933 87.8446 74.288C88.4206 74.6773 89.138 74.8747 89.9966 74.88Z" fill="#2C2B6B"/>
<rect x="115" y="50" width="40" height="40" rx="10" fill="#ACF3C7"/>
<path d="M130.982 76L127.646 64.48H129.134L131.694 73.592L134.246 64.488L135.742 64.48L138.302 73.592L140.854 64.48H142.35L139.014 76H137.59L134.998 66.968L132.406 76H130.982Z" fill="#00635F"/>
<rect x="160" y="50" width="40" height="40" rx="10" fill="#FFBDCA"/>
<path d="M176.518 76V64.48H183.798V65.832H177.942V69.44H182.838V70.792H177.942V74.648H183.798V76H176.518Z" fill="#821729"/>
<rect x="205" y="50" width="40" height="40" rx="10" fill="#99E9E5"/>
<path d="M220.995 76V64.48H225.547C225.659 64.48 225.792 64.4853 225.947 64.496C226.102 64.5013 226.251 64.5173 226.395 64.544C227.019 64.64 227.542 64.8533 227.963 65.184C228.39 65.5147 228.71 65.9333 228.923 66.44C229.136 66.9413 229.243 67.4987 229.243 68.112C229.243 69.0027 229.011 69.776 228.547 70.432C228.083 71.0827 227.403 71.4907 226.507 71.656L225.963 71.744H222.419V76H220.995ZM227.851 76L225.579 71.312L226.987 70.88L229.483 76H227.851ZM222.419 70.392H225.499C225.6 70.392 225.715 70.3867 225.843 70.376C225.976 70.3653 226.102 70.3467 226.219 70.32C226.587 70.2347 226.886 70.08 227.115 69.856C227.35 69.6267 227.52 69.36 227.627 69.056C227.734 68.7467 227.787 68.432 227.787 68.112C227.787 67.792 227.734 67.48 227.627 67.176C227.52 66.8667 227.35 66.5973 227.115 66.368C226.886 66.1387 226.587 65.984 226.219 65.904C226.102 65.872 225.976 65.8533 225.843 65.848C225.715 65.8373 225.6 65.832 225.499 65.832H222.419V70.392Z" fill="#00635F"/>
<rect x="250" y="50" width="40" height="40" rx="10" fill="#99E9E5"/>
<path d="M269.291 76V65.832H265.363V64.48H274.643V65.832H270.715V76H269.291Z" fill="#00635F"/>
<rect x="295" y="50" width="40" height="40" rx="10" fill="#FFEB99"/>
<path d="M314.286 76V71.208L310.406 64.48H312.062L315.006 69.576L317.942 64.48H319.598L315.726 71.208V76H314.286Z" fill="#806600"/>
<rect x="340" y="50" width="40" height="40" rx="10" fill="#FFEB99"/>
<path d="M360 76.24C359.109 76.24 358.323 76.056 357.64 75.688C356.957 75.32 356.421 74.8053 356.032 74.144C355.648 73.4773 355.456 72.696 355.456 71.8V64.488L356.896 64.48V71.68C356.896 72.224 356.987 72.6987 357.168 73.104C357.355 73.504 357.6 73.8373 357.904 74.104C358.208 74.3707 358.541 74.5707 358.904 74.704C359.272 74.832 359.637 74.896 360 74.896C360.368 74.896 360.736 74.8293 361.104 74.696C361.472 74.5627 361.805 74.3653 362.104 74.104C362.408 73.8373 362.651 73.5013 362.832 73.096C363.013 72.6907 363.104 72.2187 363.104 71.68V64.48H364.544V71.8C364.544 72.6907 364.349 73.4693 363.96 74.136C363.576 74.8027 363.043 75.32 362.36 75.688C361.677 76.056 360.891 76.24 360 76.24Z" fill="#806600"/>
<rect x="385" y="50" width="40" height="40" rx="10" fill="#FFBDCA"/>
<path d="M404.288 76V64.48H405.712V76H404.288Z" fill="#821729"/>
<rect x="430" y="50" width="40" height="40" rx="10" fill="#FFD599"/>
<path d="M449.997 76.24C448.85 76.24 447.877 75.9867 447.077 75.48C446.277 74.9733 445.666 74.2693 445.245 73.368C444.829 72.4667 444.621 71.424 444.621 70.24C444.621 69.056 444.829 68.0133 445.245 67.112C445.666 66.2107 446.277 65.5067 447.077 65C447.877 64.4933 448.85 64.24 449.997 64.24C451.149 64.24 452.125 64.4933 452.925 65C453.725 65.5067 454.333 66.2107 454.749 67.112C455.165 68.0133 455.373 69.056 455.373 70.24C455.373 71.424 455.165 72.4667 454.749 73.368C454.333 74.2693 453.725 74.9733 452.925 75.48C452.125 75.9867 451.149 76.24 449.997 76.24ZM449.997 74.88C450.855 74.8853 451.57 74.6933 452.141 74.304C452.717 73.9093 453.146 73.3627 453.429 72.664C453.717 71.9653 453.861 71.1573 453.861 70.24C453.861 69.3173 453.717 68.5093 453.429 67.816C453.146 67.1227 452.717 66.5813 452.141 66.192C451.57 65.8027 450.855 65.6053 449.997 65.6C449.138 65.5947 448.423 65.7867 447.853 66.176C447.287 66.5653 446.861 67.1093 446.573 67.808C446.285 68.5067 446.138 69.3173 446.133 70.24C446.127 71.1573 446.269 71.9627 446.557 72.656C446.845 73.3493 447.274 73.8933 447.845 74.288C448.421 74.6773 449.138 74.8747 449.997 74.88Z" fill="#804A00"/>
<rect x="475" y="50" width="40" height="40" rx="10" fill="#ACF3C7"/>
<path d="M491.198 76V64.48H495.75C495.862 64.48 495.995 64.4853 496.15 64.496C496.305 64.5013 496.454 64.5173 496.598 64.544C497.222 64.64 497.745 64.8533 498.166 65.184C498.593 65.5147 498.913 65.9333 499.126 66.44C499.339 66.9413 499.446 67.4987 499.446 68.112C499.446 68.72 499.337 69.2773 499.118 69.784C498.905 70.2853 498.585 70.704 498.158 71.04C497.737 71.3707 497.217 71.584 496.598 71.68C496.454 71.7013 496.305 71.7173 496.15 71.728C495.995 71.7387 495.862 71.744 495.75 71.744H492.622V76H491.198ZM492.622 70.392H495.702C495.803 70.392 495.918 70.3867 496.046 70.376C496.179 70.3653 496.305 70.3467 496.422 70.32C496.79 70.2347 497.089 70.08 497.318 69.856C497.553 69.6267 497.723 69.36 497.83 69.056C497.937 68.7467 497.99 68.432 497.99 68.112C497.99 67.792 497.937 67.48 497.83 67.176C497.723 66.8667 497.553 66.5973 497.318 66.368C497.089 66.1387 496.79 65.984 496.422 65.904C496.305 65.872 496.179 65.8533 496.046 65.848C495.918 65.8373 495.803 65.832 495.702 65.832H492.622V70.392Z" fill="#00635F"/>
<rect x="520" y="50" width="40" height="40" rx="10" fill="#ACF3C7"/>
<path d="M538.943 79.456V61.744H542.103V63.04H540.239V78.16H542.103V79.456H538.943Z" fill="#00635F"/>
<rect x="565" y="50" width="40" height="40" rx="10" fill="#ACF3C7"/>
<path d="M586.063 79.456H582.903V78.16H584.767V63.04H582.903V61.744H586.063V79.456Z" fill="#00635F"/>
<rect x="610" y="50" width="40" height="40" rx="10" fill="#DBE2E5"/>
<path d="M629.189 64.48L632.261 76H630.813L627.741 64.48H629.189Z" fill="#174258" fill-opacity="0.8"/>
<g clip-path="url(#clip0_4743_16982)">
<rect x="5" y="95" width="72.5" height="40" rx="10" fill="#DBE2E5"/>
<path d="M20.106 121.24C18.9593 121.24 17.986 120.987 17.186 120.48C16.386 119.973 15.7753 119.269 15.354 118.368C14.938 117.467 14.73 116.424 14.73 115.24C14.73 114.056 14.938 113.013 15.354 112.112C15.7753 111.211 16.386 110.507 17.186 110C17.986 109.493 18.9593 109.24 20.106 109.24C21.4393 109.24 22.5353 109.579 23.394 110.256C24.258 110.933 24.8527 111.845 25.178 112.992L23.73 113.376C23.4953 112.517 23.0767 111.84 22.474 111.344C21.8713 110.848 21.082 110.6 20.106 110.6C19.2473 110.6 18.5327 110.795 17.962 111.184C17.3913 111.573 16.962 112.117 16.674 112.816C16.386 113.509 16.2393 114.317 16.234 115.24C16.2287 116.157 16.37 116.965 16.658 117.664C16.946 118.357 17.378 118.901 17.954 119.296C18.53 119.685 19.2473 119.88 20.106 119.88C21.082 119.88 21.8713 119.632 22.474 119.136C23.0767 118.635 23.4953 117.957 23.73 117.104L25.178 117.488C24.8527 118.629 24.258 119.541 23.394 120.224C22.5353 120.901 21.4393 121.24 20.106 121.24ZM25.82 121L29.676 109.48H31.66L35.516 121H34.036L30.428 110.312H30.876L27.3 121H25.82ZM27.676 118.304V116.968H33.66V118.304H27.676ZM36.9481 121V109.48H41.5001C41.6121 109.48 41.7455 109.485 41.9001 109.496C42.0548 109.501 42.2041 109.517 42.3481 109.544C42.9721 109.64 43.4948 109.853 43.9161 110.184C44.3428 110.515 44.6628 110.933 44.8761 111.44C45.0895 111.941 45.1961 112.499 45.1961 113.112C45.1961 113.72 45.0868 114.277 44.8681 114.784C44.6548 115.285 44.3348 115.704 43.9081 116.04C43.4868 116.371 42.9668 116.584 42.3481 116.68C42.2041 116.701 42.0548 116.717 41.9001 116.728C41.7455 116.739 41.6121 116.744 41.5001 116.744H38.3721V121H36.9481ZM38.3721 115.392H41.4521C41.5535 115.392 41.6681 115.387 41.7961 115.376C41.9295 115.365 42.0548 115.347 42.1721 115.32C42.5401 115.235 42.8388 115.08 43.0681 114.856C43.3028 114.627 43.4735 114.36 43.5801 114.056C43.6868 113.747 43.7401 113.432 43.7401 113.112C43.7401 112.792 43.6868 112.48 43.5801 112.176C43.4735 111.867 43.3028 111.597 43.0681 111.368C42.8388 111.139 42.5401 110.984 42.1721 110.904C42.0548 110.872 41.9295 110.853 41.7961 110.848C41.6681 110.837 41.5535 110.832 41.4521 110.832H38.3721V115.392ZM50.8799 121.24C50.0639 121.24 49.3279 121.101 48.6719 120.824C48.0212 120.547 47.4825 120.152 47.0559 119.64C46.6345 119.123 46.3599 118.512 46.2319 117.808L47.7039 117.576C47.8905 118.301 48.2772 118.869 48.8639 119.28C49.4559 119.685 50.1519 119.888 50.9519 119.888C51.4692 119.888 51.9359 119.808 52.3519 119.648C52.7732 119.483 53.1065 119.248 53.3519 118.944C53.5972 118.64 53.7199 118.28 53.7199 117.864C53.7199 117.608 53.6745 117.389 53.5839 117.208C53.4985 117.021 53.3785 116.864 53.2239 116.736C53.0745 116.603 52.9039 116.491 52.7119 116.4C52.5199 116.309 52.3199 116.235 52.1119 116.176L49.1759 115.304C48.8559 115.208 48.5465 115.088 48.2479 114.944C47.9492 114.795 47.6825 114.611 47.4479 114.392C47.2132 114.168 47.0265 113.901 46.8879 113.592C46.7492 113.277 46.6799 112.907 46.6799 112.48C46.6799 111.797 46.8559 111.216 47.2079 110.736C47.5652 110.251 48.0479 109.88 48.6559 109.624C49.2639 109.368 49.9492 109.243 50.7119 109.248C51.4852 109.253 52.1759 109.392 52.7839 109.664C53.3972 109.931 53.9039 110.315 54.3039 110.816C54.7092 111.317 54.9812 111.917 55.1199 112.616L53.6079 112.88C53.5279 112.411 53.3492 112.008 53.0719 111.672C52.7999 111.331 52.4585 111.069 52.0479 110.888C51.6372 110.701 51.1865 110.605 50.6959 110.6C50.2265 110.595 49.8025 110.669 49.4239 110.824C49.0452 110.979 48.7439 111.195 48.5199 111.472C48.2959 111.744 48.1839 112.059 48.1839 112.416C48.1839 112.768 48.2852 113.053 48.4879 113.272C48.6905 113.485 48.9385 113.656 49.2319 113.784C49.5305 113.907 49.8212 114.008 50.1039 114.088L52.2959 114.72C52.5465 114.789 52.8345 114.885 53.1599 115.008C53.4905 115.131 53.8105 115.304 54.1199 115.528C54.4292 115.747 54.6852 116.04 54.8879 116.408C55.0905 116.771 55.1919 117.229 55.1919 117.784C55.1919 118.339 55.0799 118.832 54.8559 119.264C54.6372 119.696 54.3305 120.059 53.9359 120.352C53.5412 120.64 53.0825 120.859 52.5599 121.008C52.0372 121.163 51.4772 121.24 50.8799 121.24Z" fill="#174258" fill-opacity="0.8"/>
</g>
<g clip-path="url(#clip1_4743_16982)">
<rect x="82.5" y="95" width="40" height="40" rx="10" fill="#C9C8FF"/>
<path d="M97.6559 121L101.512 109.48H103.496L107.352 121H105.872L102.264 110.312H102.712L99.1359 121H97.6559ZM99.5119 118.304V116.968H105.496V118.304H99.5119Z" fill="#2C2B6B"/>
</g>
<g clip-path="url(#clip2_4743_16982)">
<rect x="127.5" y="95" width="40" height="40" rx="10" fill="#ACF3C7"/>
<path d="M147.669 121.24C146.853 121.24 146.117 121.101 145.461 120.824C144.81 120.547 144.272 120.152 143.845 119.64C143.424 119.123 143.149 118.512 143.021 117.808L144.493 117.576C144.68 118.301 145.066 118.869 145.653 119.28C146.245 119.685 146.941 119.888 147.741 119.888C148.258 119.888 148.725 119.808 149.141 119.648C149.562 119.483 149.896 119.248 150.141 118.944C150.386 118.64 150.509 118.28 150.509 117.864C150.509 117.608 150.464 117.389 150.373 117.208C150.288 117.021 150.168 116.864 150.013 116.736C149.864 116.603 149.693 116.491 149.501 116.4C149.309 116.309 149.109 116.235 148.901 116.176L145.965 115.304C145.645 115.208 145.336 115.088 145.037 114.944C144.738 114.795 144.472 114.611 144.237 114.392C144.002 114.168 143.816 113.901 143.677 113.592C143.538 113.277 143.469 112.907 143.469 112.48C143.469 111.797 143.645 111.216 143.997 110.736C144.354 110.251 144.837 109.88 145.445 109.624C146.053 109.368 146.738 109.243 147.501 109.248C148.274 109.253 148.965 109.392 149.573 109.664C150.186 109.931 150.693 110.315 151.093 110.816C151.498 111.317 151.77 111.917 151.909 112.616L150.397 112.88C150.317 112.411 150.138 112.008 149.861 111.672C149.589 111.331 149.248 111.069 148.837 110.888C148.426 110.701 147.976 110.605 147.485 110.6C147.016 110.595 146.592 110.669 146.213 110.824C145.834 110.979 145.533 111.195 145.309 111.472C145.085 111.744 144.973 112.059 144.973 112.416C144.973 112.768 145.074 113.053 145.277 113.272C145.48 113.485 145.728 113.656 146.021 113.784C146.32 113.907 146.61 114.008 146.893 114.088L149.085 114.72C149.336 114.789 149.624 114.885 149.949 115.008C150.28 115.131 150.6 115.304 150.909 115.528C151.218 115.747 151.474 116.04 151.677 116.408C151.88 116.771 151.981 117.229 151.981 117.784C151.981 118.339 151.869 118.832 151.645 119.264C151.426 119.696 151.12 120.059 150.725 120.352C150.33 120.64 149.872 120.859 149.349 121.008C148.826 121.163 148.266 121.24 147.669 121.24Z" fill="#00635F"/>
</g>
<g clip-path="url(#clip3_4743_16982)">
<rect x="172.5" y="95" width="40" height="40" rx="10" fill="#FFBDCA"/>
<path d="M188.175 121V109.48H191.727C191.844 109.48 192.049 109.483 192.343 109.488C192.636 109.493 192.916 109.515 193.183 109.552C194.073 109.669 194.817 109.995 195.415 110.528C196.017 111.056 196.471 111.728 196.775 112.544C197.079 113.36 197.231 114.259 197.231 115.24C197.231 116.221 197.079 117.12 196.775 117.936C196.471 118.752 196.017 119.427 195.415 119.96C194.817 120.488 194.073 120.811 193.183 120.928C192.916 120.96 192.633 120.981 192.335 120.992C192.041 120.997 191.839 121 191.727 121H188.175ZM189.639 119.64H191.727C191.929 119.64 192.156 119.635 192.407 119.624C192.657 119.608 192.876 119.584 193.063 119.552C193.692 119.435 194.201 119.171 194.591 118.76C194.98 118.349 195.265 117.837 195.447 117.224C195.628 116.611 195.719 115.949 195.719 115.24C195.719 114.515 195.625 113.845 195.439 113.232C195.257 112.619 194.972 112.109 194.583 111.704C194.193 111.299 193.687 111.04 193.063 110.928C192.876 110.891 192.655 110.867 192.399 110.856C192.143 110.845 191.919 110.84 191.727 110.84H189.639V119.64Z" fill="#821729"/>
</g>
<g clip-path="url(#clip4_4743_16982)">
<rect x="217.5" y="95" width="40" height="40" rx="10" fill="#99E9E5"/>
<path d="M234.542 121V109.48H241.262V110.904H235.966V114.528H240.302V115.952H235.966V121H234.542Z" fill="#00635F"/>
</g>
<g clip-path="url(#clip5_4743_16982)">
<rect x="262.5" y="95" width="40" height="40" rx="10" fill="#99E9E5"/>
<path d="M282.573 121.24C281.784 121.24 281.064 121.101 280.413 120.824C279.762 120.547 279.202 120.149 278.733 119.632C278.264 119.109 277.901 118.48 277.645 117.744C277.394 117.003 277.269 116.168 277.269 115.24C277.269 114.013 277.488 112.952 277.925 112.056C278.362 111.16 278.978 110.469 279.773 109.984C280.568 109.493 281.501 109.248 282.573 109.248C283.864 109.248 284.904 109.549 285.693 110.152C286.482 110.749 287.026 111.568 287.325 112.608L285.885 112.904C285.645 112.205 285.25 111.648 284.701 111.232C284.152 110.816 283.466 110.608 282.645 110.608C281.786 110.603 281.072 110.795 280.501 111.184C279.936 111.568 279.509 112.109 279.221 112.808C278.933 113.507 278.786 114.317 278.781 115.24C278.776 116.157 278.917 116.963 279.205 117.656C279.493 118.349 279.922 118.893 280.493 119.288C281.069 119.677 281.786 119.875 282.645 119.88C283.386 119.885 284.01 119.744 284.517 119.456C285.024 119.168 285.416 118.752 285.693 118.208C285.97 117.664 286.138 117.011 286.197 116.248H283.749V115.072H287.701C287.717 115.179 287.725 115.307 287.725 115.456C287.73 115.6 287.733 115.699 287.733 115.752C287.733 116.803 287.536 117.744 287.141 118.576C286.752 119.403 286.173 120.053 285.405 120.528C284.642 121.003 283.698 121.24 282.573 121.24Z" fill="#00635F"/>
</g>
<g clip-path="url(#clip6_4743_16982)">
<rect x="307.5" y="95" width="40" height="40" rx="10" fill="#FFEB99"/>
<path d="M323.042 121V109.48H324.466V114.56H330.53V109.48H331.954V121H330.53V115.912H324.466V121H323.042Z" fill="#806600"/>
</g>
<g clip-path="url(#clip7_4743_16982)">
<rect x="352.5" y="95" width="40" height="40" rx="10" fill="#FFEB99"/>
<path d="M371.895 121.232C371.09 121.232 370.407 121.013 369.847 120.576C369.287 120.139 368.903 119.552 368.695 118.816L370.111 118.48C370.197 118.869 370.402 119.2 370.727 119.472C371.058 119.744 371.437 119.88 371.863 119.88C372.141 119.88 372.423 119.813 372.711 119.68C372.999 119.541 373.221 119.317 373.375 119.008C373.482 118.795 373.543 118.56 373.559 118.304C373.575 118.043 373.583 117.736 373.583 117.384V109.48H375.023V117.384C375.023 117.715 375.021 118.011 375.015 118.272C375.015 118.533 374.989 118.784 374.935 119.024C374.887 119.259 374.791 119.499 374.647 119.744C374.359 120.251 373.973 120.627 373.487 120.872C373.007 121.112 372.477 121.232 371.895 121.232Z" fill="#806600"/>
</g>
<g clip-path="url(#clip8_4743_16982)">
<rect x="397.5" y="95" width="40" height="40" rx="10" fill="#FFBDCA"/>
<path d="M413.729 121V109.48H415.153V114.888L420.193 109.48H421.985L416.753 115.072L422.393 121H420.553L415.153 115.368V121H413.729Z" fill="#821729"/>
</g>
<g clip-path="url(#clip9_4743_16982)">
<rect x="442.5" y="95" width="40" height="40" rx="10" fill="#FFD599"/>
<path d="M459.639 121V109.48H461.063V119.648H466.407V121H459.639Z" fill="#804A00"/>
</g>
<g clip-path="url(#clip10_4743_16982)">
<rect x="487.5" y="95" width="40" height="40" rx="10" fill="#ACF3C7"/>
<path d="M506.713 122.792L506.801 122.128C507.025 122.144 507.193 122.101 507.305 122C507.417 121.899 507.489 121.76 507.521 121.584C507.553 121.408 507.558 121.213 507.537 121H506.713V119.192H508.281V121.24C508.281 121.8 508.142 122.221 507.865 122.504C507.593 122.787 507.209 122.883 506.713 122.792ZM506.713 113.928V112.36H508.281V113.928H506.713Z" fill="#00635F"/>
</g>
<g clip-path="url(#clip11_4743_16982)">
<rect x="532.5" y="95" width="40" height="40" rx="10" fill="#ACF3C7"/>
<path d="M553.243 113.08C552.747 113.171 552.36 113.075 552.083 112.792C551.811 112.509 551.675 112.088 551.675 111.528V109.48H553.243V111.288H552.419C552.403 111.501 552.411 111.696 552.443 111.872C552.475 112.048 552.547 112.187 552.659 112.288C552.771 112.389 552.936 112.432 553.155 112.416L553.243 113.08Z" fill="#00635F"/>
</g>
<g clip-path="url(#clip12_4743_16982)">
<rect x="577.5" y="95" width="72.5" height="40" rx="10" fill="#DBE2E5"/>
<path d="M600.537 120H593.545V109.328H600.537V110.512H594.873V113.952H600.425V115.136H594.873V118.816H600.537V120ZM611.486 120H610.206L603.982 111.488V120H602.654V109.328H604.014L610.158 117.664V109.328H611.486V120ZM617.95 120H616.622V110.512H613.246V109.328H621.342V110.512H617.95V120ZM630.099 120H623.107V109.328H630.099V110.512H624.435V113.952H629.987V115.136H624.435V118.816H630.099V120ZM639.961 120H638.393L635.673 115.76H633.545V120H632.217V109.328H636.505C638.457 109.328 639.849 110.576 639.849 112.544C639.849 114.464 638.537 115.52 637.081 115.648L639.961 120ZM636.345 114.592C637.609 114.592 638.473 113.744 638.473 112.544C638.473 111.344 637.609 110.512 636.345 110.512H633.545V114.592H636.345Z" fill="#174258" fill-opacity="0.8"/>
</g>
<rect x="5" y="140" width="95" height="40" rx="10" fill="#DBE2E5"/>
<path d="M19.2236 166.24C18.4076 166.24 17.6716 166.101 17.0156 165.824C16.365 165.547 15.8263 165.152 15.3996 164.64C14.9783 164.123 14.7036 163.512 14.5756 162.808L16.0476 162.576C16.2343 163.301 16.621 163.869 17.2076 164.28C17.7996 164.685 18.4956 164.888 19.2956 164.888C19.813 164.888 20.2796 164.808 20.6956 164.648C21.117 164.483 21.4503 164.248 21.6956 163.944C21.941 163.64 22.0636 163.28 22.0636 162.864C22.0636 162.608 22.0183 162.389 21.9276 162.208C21.8423 162.021 21.7223 161.864 21.5676 161.736C21.4183 161.603 21.2476 161.491 21.0556 161.4C20.8636 161.309 20.6636 161.235 20.4556 161.176L17.5196 160.304C17.1996 160.208 16.8903 160.088 16.5916 159.944C16.293 159.795 16.0263 159.611 15.7916 159.392C15.557 159.168 15.3703 158.901 15.2316 158.592C15.093 158.277 15.0236 157.907 15.0236 157.48C15.0236 156.797 15.1996 156.216 15.5516 155.736C15.909 155.251 16.3916 154.88 16.9996 154.624C17.6076 154.368 18.293 154.243 19.0556 154.248C19.829 154.253 20.5196 154.392 21.1276 154.664C21.741 154.931 22.2476 155.315 22.6476 155.816C23.053 156.317 23.325 156.917 23.4636 157.616L21.9516 157.88C21.8716 157.411 21.693 157.008 21.4156 156.672C21.1436 156.331 20.8023 156.069 20.3916 155.888C19.981 155.701 19.5303 155.605 19.0396 155.6C18.5703 155.595 18.1463 155.669 17.7676 155.824C17.389 155.979 17.0876 156.195 16.8636 156.472C16.6396 156.744 16.5276 157.059 16.5276 157.416C16.5276 157.768 16.629 158.053 16.8316 158.272C17.0343 158.485 17.2823 158.656 17.5756 158.784C17.8743 158.907 18.165 159.008 18.4476 159.088L20.6396 159.72C20.8903 159.789 21.1783 159.885 21.5036 160.008C21.8343 160.131 22.1543 160.304 22.4636 160.528C22.773 160.747 23.029 161.04 23.2316 161.408C23.4343 161.771 23.5356 162.229 23.5356 162.784C23.5356 163.339 23.4236 163.832 23.1996 164.264C22.981 164.696 22.6743 165.059 22.2796 165.352C21.885 165.64 21.4263 165.859 20.9036 166.008C20.381 166.163 19.821 166.24 19.2236 166.24ZM25.2138 166V154.48H26.6378V159.56H32.7018V154.48H34.1258V166H32.7018V160.912H26.6378V166H25.2138ZM36.53 166V154.48H37.954V166H36.53ZM40.3544 166V154.48H47.0744V155.904H41.7784V159.528H46.1144V160.952H41.7784V166H40.3544ZM51.4786 166V155.832H47.5506V154.48H56.8306V155.832H52.9026V166H51.4786Z" fill="#174258" fill-opacity="0.8"/>
<rect x="105" y="140" width="40" height="40" rx="10" fill="#C9C8FF"/>
<path d="M120.753 166V165.744L126.841 155.832H120.993V154.48H129.241V154.752L123.185 164.648H129.161V166H120.753Z" fill="#2C2B6B"/>
<rect x="150" y="140" width="40" height="40" rx="10" fill="#ACF3C7"/>
<path d="M165.183 166L169.143 160.168L165.287 154.48H167.023L170.007 158.968L172.983 154.48H174.727L170.871 160.168L174.823 166H173.087L170.007 161.376L166.927 166H165.183Z" fill="#00635F"/>
<rect x="195" y="140" width="40" height="40" rx="10" fill="#FFBDCA"/>
<path d="M215.075 166.24C213.928 166.24 212.955 165.987 212.155 165.48C211.355 164.973 210.744 164.269 210.323 163.368C209.907 162.467 209.699 161.424 209.699 160.24C209.699 159.056 209.907 158.013 210.323 157.112C210.744 156.211 211.355 155.507 212.155 155C212.955 154.493 213.928 154.24 215.075 154.24C216.408 154.24 217.504 154.579 218.363 155.256C219.227 155.933 219.821 156.845 220.147 157.992L218.699 158.376C218.464 157.517 218.045 156.84 217.443 156.344C216.84 155.848 216.051 155.6 215.075 155.6C214.216 155.6 213.501 155.795 212.931 156.184C212.36 156.573 211.931 157.117 211.643 157.816C211.355 158.509 211.208 159.317 211.203 160.24C211.197 161.157 211.339 161.965 211.627 162.664C211.915 163.357 212.347 163.901 212.923 164.296C213.499 164.685 214.216 164.88 215.075 164.88C216.051 164.88 216.84 164.632 217.443 164.136C218.045 163.635 218.464 162.957 218.699 162.104L220.147 162.488C219.821 163.629 219.227 164.541 218.363 165.224C217.504 165.901 216.408 166.24 215.075 166.24Z" fill="#821729"/>
<rect x="240" y="140" width="40" height="40" rx="10" fill="#99E9E5"/>
<path d="M259.006 166L255.15 154.48H256.63L259.982 164.488L263.366 154.48H264.846L260.99 166H259.006Z" fill="#00635F"/>
<rect x="285" y="140" width="40" height="40" rx="10" fill="#99E9E5"/>
<path d="M301.167 166V154.48H305.655C306.343 154.48 306.93 154.621 307.415 154.904C307.906 155.187 308.279 155.56 308.535 156.024C308.796 156.483 308.927 156.979 308.927 157.512C308.927 158.136 308.767 158.683 308.447 159.152C308.127 159.621 307.695 159.944 307.151 160.12L307.135 159.728C307.876 159.925 308.452 160.288 308.863 160.816C309.274 161.344 309.479 161.973 309.479 162.704C309.479 163.376 309.34 163.957 309.063 164.448C308.791 164.939 308.396 165.32 307.879 165.592C307.367 165.864 306.759 166 306.055 166H301.167ZM302.607 164.64H305.783C306.21 164.64 306.591 164.563 306.927 164.408C307.263 164.248 307.527 164.024 307.719 163.736C307.916 163.448 308.015 163.101 308.015 162.696C308.015 162.307 307.927 161.957 307.751 161.648C307.58 161.339 307.338 161.093 307.023 160.912C306.714 160.725 306.354 160.632 305.943 160.632H302.607V164.64ZM302.607 159.288H305.639C305.98 159.288 306.287 159.216 306.559 159.072C306.836 158.923 307.055 158.715 307.215 158.448C307.38 158.181 307.463 157.869 307.463 157.512C307.463 157.016 307.295 156.611 306.959 156.296C306.623 155.981 306.183 155.824 305.639 155.824H302.607V159.288Z" fill="#00635F"/>
<rect x="330" y="140" width="40" height="40" rx="10" fill="#FFEB99"/>
<path d="M345.558 166V154.48H346.998L353.006 163.48V154.48H354.446V166H353.006L346.998 156.992V166H345.558Z" fill="#806600"/>
<rect x="375" y="140" width="40" height="40" rx="10" fill="#FFEB99"/>
<path d="M389.354 166V154.48H390.65L395.002 163.656L399.33 154.48H400.642V165.992H399.29V157.608L395.378 166H394.618L390.706 157.608V166H389.354Z" fill="#806600"/>
<rect x="420" y="140" width="40" height="40" rx="10" fill="#FFBDCA"/>
<path d="M438.733 167.792L438.821 167.128C439.045 167.144 439.213 167.101 439.325 167C439.437 166.899 439.509 166.76 439.541 166.584C439.573 166.408 439.579 166.213 439.557 166H438.733V164.192H440.301V166.24C440.301 166.8 440.163 167.221 439.885 167.504C439.613 167.787 439.229 167.883 438.733 167.792Z" fill="#821729"/>
<rect x="465" y="140" width="40" height="40" rx="10" fill="#FFD599"/>
<path d="M484.22 166V164.432H485.788V166H484.22Z" fill="#804A00"/>
<rect x="510" y="140" width="40" height="40" rx="10" fill="#ACF3C7"/>
<path d="M530.813 154.48H532.261L529.189 166H527.741L530.813 154.48Z" fill="#00635F"/>
<rect x="555" y="140" width="95" height="40" rx="10" fill="#DBE2E5"/>
<path d="M603.224 166.24C602.408 166.24 601.672 166.101 601.016 165.824C600.365 165.547 599.826 165.152 599.4 164.64C598.978 164.123 598.704 163.512 598.576 162.808L600.048 162.576C600.234 163.301 600.621 163.869 601.208 164.28C601.8 164.685 602.496 164.888 603.296 164.888C603.813 164.888 604.28 164.808 604.696 164.648C605.117 164.483 605.45 164.248 605.696 163.944C605.941 163.64 606.064 163.28 606.064 162.864C606.064 162.608 606.018 162.389 605.928 162.208C605.842 162.021 605.722 161.864 605.568 161.736C605.418 161.603 605.248 161.491 605.056 161.4C604.864 161.309 604.664 161.235 604.456 161.176L601.52 160.304C601.2 160.208 600.89 160.088 600.592 159.944C600.293 159.795 600.026 159.611 599.792 159.392C599.557 159.168 599.37 158.901 599.232 158.592C599.093 158.277 599.024 157.907 599.024 157.48C599.024 156.797 599.2 156.216 599.552 155.736C599.909 155.251 600.392 154.88 601 154.624C601.608 154.368 602.293 154.243 603.056 154.248C603.829 154.253 604.52 154.392 605.128 154.664C605.741 154.931 606.248 155.315 606.648 155.816C607.053 156.317 607.325 156.917 607.464 157.616L605.952 157.88C605.872 157.411 605.693 157.008 605.416 156.672C605.144 156.331 604.802 156.069 604.392 155.888C603.981 155.701 603.53 155.605 603.04 155.6C602.57 155.595 602.146 155.669 601.768 155.824C601.389 155.979 601.088 156.195 600.864 156.472C600.64 156.744 600.528 157.059 600.528 157.416C600.528 157.768 600.629 158.053 600.832 158.272C601.034 158.485 601.282 158.656 601.576 158.784C601.874 158.907 602.165 159.008 602.448 159.088L604.64 159.72C604.89 159.789 605.178 159.885 605.504 160.008C605.834 160.131 606.154 160.304 606.464 160.528C606.773 160.747 607.029 161.04 607.232 161.408C607.434 161.771 607.536 162.229 607.536 162.784C607.536 163.339 607.424 163.832 607.2 164.264C606.981 164.696 606.674 165.059 606.28 165.352C605.885 165.64 605.426 165.859 604.904 166.008C604.381 166.163 603.821 166.24 603.224 166.24ZM609.214 166V154.48H610.638V159.56H616.702V154.48H618.126V166H616.702V160.912H610.638V166H609.214ZM620.53 166V154.48H621.954V166H620.53ZM624.354 166V154.48H631.074V155.904H625.778V159.528H630.114V160.952H625.778V166H624.354ZM635.479 166V155.832H631.551V154.48H640.831V155.832H636.903V166H635.479Z" fill="#174258" fill-opacity="0.8"/>
<rect x="195" y="185" width="220" height="40" rx="10" fill="#DBE2E5"/>
<defs>
<clipPath id="clip0_4743_16982">
<rect width="72.5" height="43" fill="white" transform="translate(5 92)"/>
</clipPath>
<clipPath id="clip1_4743_16982">
<rect width="40" height="43" fill="white" transform="translate(82.5 92)"/>
</clipPath>
<clipPath id="clip2_4743_16982">
<rect width="40" height="43" fill="white" transform="translate(127.5 92)"/>
</clipPath>
<clipPath id="clip3_4743_16982">
<rect width="40" height="43" fill="white" transform="translate(172.5 92)"/>
</clipPath>
<clipPath id="clip4_4743_16982">
<rect width="40" height="43" fill="white" transform="translate(217.5 92)"/>
</clipPath>
<clipPath id="clip5_4743_16982">
<rect width="40" height="43" fill="white" transform="translate(262.5 92)"/>
</clipPath>
<clipPath id="clip6_4743_16982">
<rect width="40" height="43" fill="white" transform="translate(307.5 92)"/>
</clipPath>
<clipPath id="clip7_4743_16982">
<rect width="40" height="43" fill="white" transform="translate(352.5 92)"/>
</clipPath>
<clipPath id="clip8_4743_16982">
<rect width="40" height="43" fill="white" transform="translate(397.5 92)"/>
</clipPath>
<clipPath id="clip9_4743_16982">
<rect width="40" height="43" fill="white" transform="translate(442.5 92)"/>
</clipPath>
<clipPath id="clip10_4743_16982">
<rect width="40" height="43" fill="white" transform="translate(487.5 92)"/>
</clipPath>
<clipPath id="clip11_4743_16982">
<rect width="40" height="43" fill="white" transform="translate(532.5 92)"/>
</clipPath>
<clipPath id="clip12_4743_16982">
<rect width="72.5" height="43" fill="white" transform="translate(577.5 92)"/>
</clipPath>
</defs>
</svg>
